<!DOCTYPE svg PUBLIC "-//W3C//DTD SVG 1.1//EN" "http://www.w3.org/Graphics/SVG/1.1/DTD/svg11.dtd">
<!-- Uploaded to: SVG Repo, www.svgrepo.com, Transformed by: SVG Repo Mixer Tools -->
<svg fill="#000000" width="199px" height="199px" viewBox="0 0 24.00 24.00" id="delete-user-2" data-name="Line Color" xmlns="http://www.w3.org/2000/svg" class="icon line-color" stroke="#000000" transform="matrix(-1, 0, 0, 1, 0, 0)rotate(0)">
<g id="SVGRepo_bgCarrier" stroke-width="0"/>
<g id="SVGRepo_tracerCarrier" stroke-linecap="round" stroke-linejoin="round" stroke="#ff0000" stroke-width="1.488">
<line id="secondary" x1="18" y1="15" x2="21" y2="18" style="fill: none; stroke: #ff4000; stroke-linecap: round; stroke-linejoin: round; stroke-width: 2;"/>
<line id="secondary-2" data-name="secondary" x1="21" y1="15" x2="18" y2="18" style="fill: none; stroke: #ff4000; stroke-linecap: round; stroke-linejoin: round; stroke-width: 2;"/>
<circle id="primary" cx="11" cy="8" r="5" style="fill: none; stroke: #000000; stroke-linecap: round; stroke-linejoin: round; stroke-width: 2;"/>
<path id="primary-2" data-name="primary" d="M14,13.29A6.91,6.91,0,0,0,12,13H10a7,7,0,0,0-7,7,1,1,0,0,0,1,1H14" style="fill: none; stroke: #000000; stroke-linecap: round; stroke-linejoin: round; stroke-width: 2;"/>
</g>
<g id="SVGRepo_iconCarrier">
<line id="secondary" x1="18" y1="15" x2="21" y2="18" style="fill: none; stroke: #ff4000; stroke-linecap: round; stroke-linejoin: round; stroke-width:0.00024000000000000003;"/>
<line id="secondary-2" data-name="secondary" x1="21" y1="15" x2="18" y2="18" style="fill: none; stroke: #ff4000; stroke-linecap: round; stroke-linejoin: round; stroke-width:0.00024000000000000003;"/>
<circle id="primary" cx="11" cy="8" r="5" style="fill: none; stroke: #000000; stroke-linecap: round; stroke-linejoin: round; stroke-width:0.00024000000000000003;"/>
<path id="primary-2" data-name="primary" d="M14,13.29A6.91,6.91,0,0,0,12,13H10a7,7,0,0,0-7,7,1,1,0,0,0,1,1H14" style="fill: none; stroke: #000000; stroke-linecap: round; stroke-linejoin: round; stroke-width:0.00024000000000000003;"/>
</g>
</svg>